<?xml version="1.0" encoding="UTF-8"?>
<!DOCTYPE svg PUBLIC "-//W3C//DTD SVG 1.1//EN" "http://www.w3.org/Graphics/SVG/1.1/DTD/svg11.dtd">
<!-- Creator: CorelDRAW X8 -->
<svg xmlns="http://www.w3.org/2000/svg" xml:space="preserve" width="1280px" height="413px" version="1.1" style="shape-rendering:geometricPrecision; text-rendering:geometricPrecision; image-rendering:optimizeQuality; fill-rule:evenodd; clip-rule:evenodd"
viewBox="0 0 1280 413"
 xmlns:xlink="http://www.w3.org/1999/xlink">
 <defs>
  <style type="text/css">
   <![CDATA[
    .str0 {stroke:#2B2A29;stroke-width:0.212272}
    .fil0 {fill:none}
    .fil3 {fill:#2B2A29}
    .fil5 {fill:#38A085}
    .fil2 {fill:#44A2C9}
    .fil4 {fill:#48CFAC}
    .fil7 {fill:#51D3B1}
    .fil6 {fill:#74E4C6}
    .fil1 {fill:#DDEDF5}
    .fil8 {fill:#DF4641}
    .fnt0 {font-weight:normal;font-size:21.1818px;font-family:'Arial'}
   ]]>
  </style>
 </defs>
 <g id="Слой_x0020_1">
  <metadata id="CorelCorpID_0Corel-Layer"/>
  <rect class="fil0" width="1280" height="413"/>
  <path class="fil0" d="M5 401c37,7 65,1 82,-19 24,-29 44,-49 61,-59 40,-17 81,-24 122,-22 30,1 53,4 70,8 49,9 109,14 154,-13 23,-13 43,-27 59,-42 24,-22 51,-40 81,-54 46,-16 88,-19 125,-10 92,35 159,34 201,-2 25,-21 44,-39 56,-55 20,-27 43,-46 68,-57 20,-10 58,-14 116,-11 32,-1 58,-6 77,-16"/>
  <circle class="fil1" cx="5" cy="401" r="3"/>
  <g id="_2359691069152">
   <path class="fil1" d="M15 400c1,0 3,1 3,3 0,1 -2,2 -3,2 -2,0 -3,-1 -3,-2 0,-2 1,-3 3,-3z"/>
   <path class="fil1" d="M25 401c1,0 2,1 2,3 0,1 -1,2 -2,2 -2,0 -3,-1 -3,-2 0,-2 1,-3 3,-3z"/>
   <path class="fil1" d="M35 401c1,0 2,1 2,3 0,1 -1,3 -2,3 -2,0 -3,-2 -3,-3 0,-2 1,-3 3,-3z"/>
   <path class="fil1" d="M44 401c2,0 3,1 3,2 0,2 -1,3 -3,3 -1,0 -2,-1 -2,-3 0,-1 1,-2 2,-2z"/>
   <path class="fil1" d="M54 399c2,0 3,1 3,3 0,1 -1,2 -3,2 -1,0 -3,-1 -3,-2 0,-2 2,-3 3,-3z"/>
   <path class="fil1" d="M64 396c1,0 2,1 2,3 0,1 -1,2 -2,2 -2,0 -3,-1 -3,-2 0,-2 1,-3 3,-3z"/>
   <path class="fil1" d="M73 391c1,0 2,2 2,3 0,2 -1,3 -2,3 -2,0 -3,-1 -3,-3 0,-1 1,-3 3,-3z"/>
   <path class="fil1" d="M81 386c1,0 2,1 2,2 0,2 -1,3 -2,3 -2,0 -3,-1 -3,-3 0,-1 1,-2 3,-2z"/>
   <path class="fil1" d="M88 378c1,0 2,2 2,3 0,2 -1,3 -2,3 -2,0 -3,-1 -3,-3 0,-1 1,-3 3,-3z"/>
   <path class="fil1" d="M94 371c1,0 3,1 3,3 0,1 -2,2 -3,2 -2,0 -3,-1 -3,-2 0,-2 1,-3 3,-3z"/>
   <path class="fil1" d="M100 363c2,0 3,2 3,3 0,2 -1,3 -3,3 -1,0 -2,-1 -2,-3 0,-1 1,-3 2,-3z"/>
   <path class="fil1" d="M107 356c2,0 3,1 3,3 0,1 -1,3 -3,3 -1,0 -3,-2 -3,-3 0,-2 2,-3 3,-3z"/>
   <path class="fil1" d="M114 349c1,0 3,1 3,3 0,1 -2,2 -3,2 -2,0 -3,-1 -3,-2 0,-2 1,-3 3,-3z"/>
   <path class="fil1" d="M121 342c2,0 3,1 3,3 0,1 -1,2 -3,2 -2,0 -3,-1 -3,-2 0,-2 1,-3 3,-3z"/>
   <path class="fil1" d="M128 335c2,0 3,1 3,3 0,1 -1,3 -3,3 -1,0 -3,-2 -3,-3 0,-2 2,-3 3,-3z"/>
   <path class="fil1" d="M136 329c1,0 3,1 3,2 0,2 -2,3 -3,3 -2,0 -3,-1 -3,-3 0,-1 1,-2 3,-2z"/>
   <path class="fil1" d="M144 323c1,0 3,1 3,2 0,2 -2,3 -3,3 -2,0 -3,-1 -3,-3 0,-1 1,-2 3,-2z"/>
   <path class="fil1" d="M153 318c1,0 2,1 2,3 0,1 -1,3 -2,3 -2,0 -3,-2 -3,-3 0,-2 1,-3 3,-3z"/>
   <path class="fil1" d="M162 315c1,0 3,1 3,2 0,2 -2,3 -3,3 -2,0 -3,-1 -3,-3 0,-1 1,-2 3,-2z"/>
   <path class="fil1" d="M171 311c2,0 3,2 3,3 0,2 -1,3 -3,3 -1,0 -3,-1 -3,-3 0,-1 2,-3 3,-3z"/>
   <path class="fil1" d="M181 308c1,0 3,2 3,3 0,2 -2,3 -3,3 -2,0 -3,-1 -3,-3 0,-1 1,-3 3,-3z"/>
   <path class="fil1" d="M190 306c2,0 3,1 3,3 0,1 -1,2 -3,2 -1,0 -2,-1 -2,-2 0,-2 1,-3 2,-3z"/>
   <path class="fil1" d="M200 304c2,0 3,1 3,2 0,2 -1,3 -3,3 -1,0 -3,-1 -3,-3 0,-1 2,-2 3,-2z"/>
   <path class="fil1" d="M210 302c1,0 3,1 3,3 0,1 -2,2 -3,2 -2,0 -3,-1 -3,-2 0,-2 1,-3 3,-3z"/>
   <path class="fil1" d="M220 300c1,0 2,1 2,3 0,2 -1,3 -2,3 -2,0 -3,-1 -3,-3 0,-2 1,-3 3,-3z"/>
   <path class="fil1" d="M229 299c2,0 3,1 3,3 0,1 -1,3 -3,3 -1,0 -2,-2 -2,-3 0,-2 1,-3 2,-3z"/>
   <path class="fil1" d="M239 298c2,0 3,1 3,3 0,1 -1,3 -3,3 -1,0 -2,-2 -2,-3 0,-2 1,-3 2,-3z"/>
   <path class="fil1" d="M249 298c2,0 3,1 3,2 0,2 -1,3 -3,3 -1,0 -2,-1 -2,-3 0,-1 1,-2 2,-2z"/>
   <path class="fil1" d="M259 298c2,0 3,1 3,2 0,2 -1,3 -3,3 -1,0 -3,-1 -3,-3 0,-1 2,-2 3,-2z"/>
   <path class="fil1" d="M269 298c2,0 3,1 3,3 0,1 -1,2 -3,2 -1,0 -3,-1 -3,-2 0,-2 2,-3 3,-3z"/>
   <path class="fil1" d="M279 298c2,0 3,2 3,3 0,2 -1,3 -3,3 -1,0 -3,-1 -3,-3 0,-1 2,-3 3,-3z"/>
   <path class="fil1" d="M289 299c2,0 3,1 3,3 0,2 -1,3 -3,3 -2,0 -3,-1 -3,-3 0,-2 1,-3 3,-3z"/>
   <path class="fil1" d="M299 300c1,0 3,1 3,3 0,1 -2,3 -3,3 -2,0 -3,-2 -3,-3 0,-2 1,-3 3,-3z"/>
   <path class="fil1" d="M309 301c1,0 3,1 3,3 0,2 -2,3 -3,3 -2,0 -3,-1 -3,-3 0,-2 1,-3 3,-3z"/>
   <path class="fil1" d="M319 303c1,0 2,1 2,2 0,2 -1,3 -2,3 -2,0 -3,-1 -3,-3 0,-1 1,-2 3,-2z"/>
   <path class="fil1" d="M328 304c2,0 3,1 3,3 0,2 -1,3 -3,3 -1,0 -2,-1 -2,-3 0,-2 1,-3 2,-3z"/>
   <path class="fil1" d="M338 306c2,0 3,2 3,3 0,2 -1,3 -3,3 -1,0 -3,-1 -3,-3 0,-1 2,-3 3,-3z"/>
   <path class="fil1" d="M348 308c1,0 3,1 3,3 0,1 -2,3 -3,3 -2,0 -3,-2 -3,-3 0,-2 1,-3 3,-3z"/>
   <path class="fil1" d="M358 310c1,0 2,1 2,2 0,2 -1,3 -2,3 -2,0 -3,-1 -3,-3 0,-1 1,-2 3,-2z"/>
   <path class="fil1" d="M368 311c1,0 2,1 2,3 0,1 -1,2 -2,2 -2,0 -3,-1 -3,-2 0,-2 1,-3 3,-3z"/>
   <path class="fil1" d="M377 312c2,0 3,1 3,3 0,1 -1,3 -3,3 -1,0 -2,-2 -2,-3 0,-2 1,-3 2,-3z"/>
   <path class="fil1" d="M387 313c2,0 3,1 3,3 0,1 -1,2 -3,2 -1,0 -2,-1 -2,-2 0,-2 1,-3 2,-3z"/>
   <path class="fil1" d="M397 313c2,0 3,2 3,3 0,2 -1,3 -3,3 -1,0 -3,-1 -3,-3 0,-1 2,-3 3,-3z"/>
   <path class="fil1" d="M407 314c2,0 3,1 3,2 0,2 -1,3 -3,3 -1,0 -3,-1 -3,-3 0,-1 2,-2 3,-2z"/>
   <path class="fil1" d="M417 313c2,0 3,2 3,3 0,2 -1,3 -3,3 -1,0 -3,-1 -3,-3 0,-1 2,-3 3,-3z"/>
   <path class="fil1" d="M427 313c2,0 3,1 3,3 0,1 -1,3 -3,3 -2,0 -3,-2 -3,-3 0,-2 1,-3 3,-3z"/>
   <path class="fil1" d="M437 312c1,0 3,1 3,3 0,1 -2,3 -3,3 -2,0 -3,-2 -3,-3 0,-2 1,-3 3,-3z"/>
   <path class="fil1" d="M447 310c1,0 3,2 3,3 0,2 -2,3 -3,3 -2,0 -3,-1 -3,-3 0,-1 1,-3 3,-3z"/>
   <path class="fil1" d="M456 308c2,0 3,2 3,3 0,2 -1,3 -3,3 -1,0 -2,-1 -2,-3 0,-1 1,-3 2,-3z"/>
   <path class="fil1" d="M466 306c2,0 3,1 3,3 0,1 -1,2 -3,2 -1,0 -3,-1 -3,-2 0,-2 2,-3 3,-3z"/>
   <path class="fil1" d="M475 303c2,0 3,1 3,2 0,2 -1,3 -3,3 -1,0 -2,-1 -2,-3 0,-1 1,-2 2,-2z"/>
   <path class="fil1" d="M485 299c1,0 2,1 2,2 0,2 -1,3 -2,3 -2,0 -3,-1 -3,-3 0,-1 1,-2 3,-2z"/>
   <path class="fil1" d="M493 294c2,0 3,1 3,3 0,1 -1,3 -3,3 -1,0 -2,-2 -2,-3 0,-2 1,-3 2,-3z"/>
   <path class="fil1" d="M502 289c1,0 3,1 3,3 0,1 -2,2 -3,2 -2,0 -3,-1 -3,-2 0,-2 1,-3 3,-3z"/>
   <path class="fil1" d="M510 284c2,0 3,1 3,2 0,2 -1,3 -3,3 -1,0 -3,-1 -3,-3 0,-1 2,-2 3,-2z"/>
   <path class="fil1" d="M519 278c1,0 2,1 2,3 0,1 -1,3 -2,3 -2,0 -3,-2 -3,-3 0,-2 1,-3 3,-3z"/>
   <path class="fil1" d="M527 272c1,0 2,2 2,3 0,2 -1,3 -2,3 -2,0 -3,-1 -3,-3 0,-1 1,-3 3,-3z"/>
   <path class="fil1" d="M535 266c1,0 2,2 2,3 0,2 -1,3 -2,3 -2,0 -3,-1 -3,-3 0,-1 1,-3 3,-3z"/>
   <path class="fil1" d="M542 260c2,0 3,2 3,3 0,2 -1,3 -3,3 -1,0 -2,-1 -2,-3 0,-1 1,-3 2,-3z"/>
   <path class="fil1" d="M550 254c2,0 3,1 3,3 0,1 -1,3 -3,3 -1,0 -3,-2 -3,-3 0,-2 2,-3 3,-3z"/>
   <path class="fil1" d="M558 247c1,0 2,2 2,3 0,2 -1,3 -2,3 -2,0 -3,-1 -3,-3 0,-1 1,-3 3,-3z"/>
   <path class="fil1" d="M565 241c2,0 3,1 3,3 0,1 -1,2 -3,2 -2,0 -3,-1 -3,-2 0,-2 1,-3 3,-3z"/>
   <path class="fil1" d="M573 235c1,0 3,1 3,2 0,2 -2,3 -3,3 -2,0 -3,-1 -3,-3 0,-1 1,-2 3,-2z"/>
   <path class="fil1" d="M581 229c1,0 2,1 2,2 0,2 -1,3 -2,3 -2,0 -3,-1 -3,-3 0,-1 1,-2 3,-2z"/>
   <path class="fil1" d="M589 223c1,0 3,1 3,3 0,1 -2,2 -3,2 -2,0 -3,-1 -3,-2 0,-2 1,-3 3,-3z"/>
   <path class="fil1" d="M597 217c2,0 3,2 3,3 0,2 -1,3 -3,3 -1,0 -3,-1 -3,-3 0,-1 2,-3 3,-3z"/>
   <path class="fil1" d="M605 212c2,0 3,1 3,3 0,1 -1,3 -3,3 -1,0 -2,-2 -2,-3 0,-2 1,-3 2,-3z"/>
   <path class="fil1" d="M614 207c2,0 3,1 3,3 0,2 -1,3 -3,3 -1,0 -3,-1 -3,-3 0,-2 2,-3 3,-3z"/>
   <path class="fil1" d="M623 203c1,0 3,1 3,2 0,2 -2,3 -3,3 -2,0 -3,-1 -3,-3 0,-1 1,-2 3,-2z"/>
   <path class="fil1" d="M632 198c1,0 3,1 3,3 0,1 -2,3 -3,3 -2,0 -3,-2 -3,-3 0,-2 1,-3 3,-3z"/>
   <path class="fil1" d="M641 195c2,0 3,1 3,2 0,2 -1,3 -3,3 -1,0 -3,-1 -3,-3 0,-1 2,-2 3,-2z"/>
   <path class="fil1" d="M651 192c1,0 2,1 2,3 0,1 -1,2 -2,2 -2,0 -3,-1 -3,-2 0,-2 1,-3 3,-3z"/>
   <path class="fil1" d="M660 189c2,0 3,2 3,3 0,2 -1,3 -3,3 -1,0 -3,-1 -3,-3 0,-1 2,-3 3,-3z"/>
   <path class="fil1" d="M670 187c1,0 3,1 3,3 0,1 -2,3 -3,3 -2,0 -3,-2 -3,-3 0,-2 1,-3 3,-3z"/>
   <path class="fil1" d="M680 185c1,0 2,2 2,3 0,2 -1,3 -2,3 -2,0 -3,-1 -3,-3 0,-1 1,-3 3,-3z"/>
   <path class="fil1" d="M689 184c2,0 3,1 3,3 0,1 -1,2 -3,2 -1,0 -2,-1 -2,-2 0,-2 1,-3 2,-3z"/>
   <path class="fil1" d="M699 183c2,0 3,1 3,3 0,1 -1,2 -3,2 -1,0 -2,-1 -2,-2 0,-2 1,-3 2,-3z"/>
   <path class="fil1" d="M709 182c2,0 3,2 3,3 0,2 -1,3 -3,3 -1,0 -3,-1 -3,-3 0,-1 2,-3 3,-3z"/>
   <path class="fil1" d="M719 182c2,0 3,1 3,3 0,2 -1,3 -3,3 -1,0 -3,-1 -3,-3 0,-2 2,-3 3,-3z"/>
   <path class="fil1" d="M729 183c2,0 3,1 3,3 0,1 -1,2 -3,2 -1,0 -3,-1 -3,-2 0,-2 2,-3 3,-3z"/>
   <path class="fil1" d="M739 184c2,0 3,1 3,3 0,1 -1,2 -3,2 -2,0 -3,-1 -3,-2 0,-2 1,-3 3,-3z"/>
   <path class="fil1" d="M749 185c1,0 3,2 3,3 0,2 -2,3 -3,3 -2,0 -3,-1 -3,-3 0,-1 1,-3 3,-3z"/>
   <path class="fil1" d="M759 187c1,0 2,2 2,3 0,2 -1,3 -2,3 -2,0 -3,-1 -3,-3 0,-1 1,-3 3,-3z"/>
   <path class="fil1" d="M768 191c1,0 3,1 3,3 0,1 -2,2 -3,2 -2,0 -3,-1 -3,-2 0,-2 1,-3 3,-3z"/>
   <path class="fil1" d="M777 194c2,0 3,1 3,3 0,1 -1,3 -3,3 -1,0 -3,-2 -3,-3 0,-2 2,-3 3,-3z"/>
   <path class="fil1" d="M787 197c1,0 2,1 2,3 0,2 -1,3 -2,3 -2,0 -3,-1 -3,-3 0,-2 1,-3 3,-3z"/>
   <path class="fil1" d="M796 200c2,0 3,1 3,3 0,1 -1,3 -3,3 -1,0 -3,-2 -3,-3 0,-2 2,-3 3,-3z"/>
   <path class="fil1" d="M806 203c1,0 3,1 3,3 0,1 -2,2 -3,2 -2,0 -3,-1 -3,-2 0,-2 1,-3 3,-3z"/>
   <path class="fil1" d="M815 205c2,0 3,2 3,3 0,2 -1,3 -3,3 -1,0 -2,-1 -2,-3 0,-1 1,-3 2,-3z"/>
   <path class="fil1" d="M825 207c2,0 3,2 3,3 0,2 -1,3 -3,3 -1,0 -3,-1 -3,-3 0,-1 2,-3 3,-3z"/>
   <path class="fil1" d="M835 209c1,0 3,2 3,3 0,2 -2,3 -3,3 -2,0 -3,-1 -3,-3 0,-1 1,-3 3,-3z"/>
   <path class="fil1" d="M845 211c1,0 2,1 2,3 0,1 -1,2 -2,2 -2,0 -3,-1 -3,-2 0,-2 1,-3 3,-3z"/>
   <path class="fil1" d="M855 212c1,0 2,1 2,3 0,1 -1,3 -2,3 -2,0 -3,-2 -3,-3 0,-2 1,-3 3,-3z"/>
   <path class="fil1" d="M864 213c2,0 3,1 3,3 0,1 -1,2 -3,2 -1,0 -2,-1 -2,-2 0,-2 1,-3 2,-3z"/>
   <path class="fil1" d="M874 213c2,0 3,1 3,3 0,2 -1,3 -3,3 -1,0 -2,-1 -2,-3 0,-2 1,-3 2,-3z"/>
   <path class="fil1" d="M884 213c2,0 3,1 3,3 0,1 -1,3 -3,3 -1,0 -3,-2 -3,-3 0,-2 2,-3 3,-3z"/>
   <path class="fil1" d="M894 212c2,0 3,1 3,3 0,2 -1,3 -3,3 -1,0 -3,-1 -3,-3 0,-2 2,-3 3,-3z"/>
   <path class="fil1" d="M904 211c2,0 3,1 3,3 0,1 -1,2 -3,2 -2,0 -3,-1 -3,-2 0,-2 1,-3 3,-3z"/>
   <path class="fil1" d="M914 209c1,0 3,1 3,3 0,1 -2,2 -3,2 -2,0 -3,-1 -3,-2 0,-2 1,-3 3,-3z"/>
   <path class="fil1" d="M923 206c2,0 3,1 3,3 0,1 -1,3 -3,3 -1,0 -3,-2 -3,-3 0,-2 2,-3 3,-3z"/>
   <path class="fil1" d="M933 202c1,0 2,2 2,3 0,2 -1,3 -2,3 -2,0 -3,-1 -3,-3 0,-1 1,-3 3,-3z"/>
   <path class="fil1" d="M941 198c2,0 3,1 3,3 0,1 -1,3 -3,3 -1,0 -2,-2 -2,-3 0,-2 1,-3 2,-3z"/>
   <path class="fil1" d="M950 193c1,0 3,1 3,3 0,1 -2,2 -3,2 -2,0 -3,-1 -3,-2 0,-2 1,-3 3,-3z"/>
   <path class="fil1" d="M958 187c1,0 3,1 3,2 0,2 -2,3 -3,3 -2,0 -3,-1 -3,-3 0,-1 1,-2 3,-2z"/>
   <path class="fil1" d="M965 180c2,0 3,2 3,3 0,2 -1,3 -3,3 -1,0 -2,-1 -2,-3 0,-1 1,-3 2,-3z"/>
   <path class="fil1" d="M973 174c2,0 3,1 3,3 0,1 -1,3 -3,3 -2,0 -3,-2 -3,-3 0,-2 1,-3 3,-3z"/>
   <path class="fil1" d="M981 167c1,0 2,2 2,3 0,2 -1,3 -2,3 -2,0 -3,-1 -3,-3 0,-1 1,-3 3,-3z"/>
   <path class="fil1" d="M988 161c1,0 3,1 3,3 0,1 -2,2 -3,2 -2,0 -3,-1 -3,-2 0,-2 1,-3 3,-3z"/>
   <path class="fil1" d="M995 154c2,0 3,1 3,3 0,1 -1,3 -3,3 -1,0 -3,-2 -3,-3 0,-2 2,-3 3,-3z"/>
   <path class="fil1" d="M1002 147c2,0 3,1 3,3 0,1 -1,3 -3,3 -1,0 -3,-2 -3,-3 0,-2 2,-3 3,-3z"/>
   <path class="fil1" d="M1009 140c1,0 3,1 3,2 0,2 -2,3 -3,3 -2,0 -3,-1 -3,-3 0,-1 1,-2 3,-2z"/>
   <path class="fil1" d="M1015 132c2,0 3,1 3,3 0,1 -1,3 -3,3 -1,0 -3,-2 -3,-3 0,-2 2,-3 3,-3z"/>
   <path class="fil1" d="M1021 124c2,0 3,1 3,3 0,1 -1,3 -3,3 -1,0 -3,-2 -3,-3 0,-2 2,-3 3,-3z"/>
   <path class="fil1" d="M1027 116c2,0 3,2 3,3 0,2 -1,3 -3,3 -1,0 -2,-1 -2,-3 0,-1 1,-3 2,-3z"/>
   <path class="fil1" d="M1034 109c2,0 3,1 3,3 0,1 -1,3 -3,3 -2,0 -3,-2 -3,-3 0,-2 1,-3 3,-3z"/>
   <path class="fil1" d="M1041 102c2,0 3,1 3,3 0,1 -1,2 -3,2 -1,0 -3,-1 -3,-2 0,-2 2,-3 3,-3z"/>
   <path class="fil1" d="M1048 95c2,0 3,2 3,3 0,2 -1,3 -3,3 -1,0 -2,-1 -2,-3 0,-1 1,-3 2,-3z"/>
   <path class="fil1" d="M1056 89c2,0 3,1 3,3 0,1 -1,3 -3,3 -1,0 -3,-2 -3,-3 0,-2 2,-3 3,-3z"/>
   <path class="fil1" d="M1065 84c1,0 2,1 2,2 0,2 -1,3 -2,3 -2,0 -3,-1 -3,-3 0,-1 1,-2 3,-2z"/>
   <path class="fil1" d="M1073 79c2,0 3,1 3,2 0,2 -1,3 -3,3 -1,0 -3,-1 -3,-3 0,-1 2,-2 3,-2z"/>
   <path class="fil1" d="M1082 74c2,0 3,2 3,3 0,2 -1,3 -3,3 -1,0 -3,-1 -3,-3 0,-1 2,-3 3,-3z"/>
   <path class="fil1" d="M1091 70c2,0 3,2 3,3 0,2 -1,3 -3,3 -1,0 -3,-1 -3,-3 0,-1 2,-3 3,-3z"/>
   <path class="fil1" d="M1101 67c1,0 2,2 2,3 0,2 -1,3 -2,3 -2,0 -3,-1 -3,-3 0,-1 1,-3 3,-3z"/>
   <path class="fil1" d="M1110 65c2,0 3,2 3,3 0,2 -1,3 -3,3 -1,0 -2,-1 -2,-3 0,-1 1,-3 2,-3z"/>
   <path class="fil1" d="M1120 64c2,0 3,1 3,3 0,1 -1,2 -3,2 -1,0 -3,-1 -3,-2 0,-2 2,-3 3,-3z"/>
   <path class="fil1" d="M1130 63c2,0 3,1 3,2 0,2 -1,3 -3,3 -1,0 -3,-1 -3,-3 0,-1 2,-2 3,-2z"/>
   <path class="fil1" d="M1140 62c2,0 3,1 3,3 0,1 -1,2 -3,2 -2,0 -3,-1 -3,-2 0,-2 1,-3 3,-3z"/>
   <path class="fil1" d="M1150 61c1,0 3,2 3,3 0,2 -2,3 -3,3 -2,0 -3,-1 -3,-3 0,-1 1,-3 3,-3z"/>
   <path class="fil1" d="M1160 61c1,0 3,1 3,3 0,1 -2,3 -3,3 -2,0 -3,-2 -3,-3 0,-2 1,-3 3,-3z"/>
   <path class="fil1" d="M1170 61c1,0 3,1 3,3 0,1 -2,3 -3,3 -2,0 -3,-2 -3,-3 0,-2 1,-3 3,-3z"/>
   <path class="fil1" d="M1180 61c1,0 3,1 3,3 0,2 -2,3 -3,3 -2,0 -3,-1 -3,-3 0,-2 1,-3 3,-3z"/>
   <path class="fil1" d="M1190 61c1,0 2,2 2,3 0,2 -1,3 -2,3 -2,0 -3,-1 -3,-3 0,-1 1,-3 3,-3z"/>
   <path class="fil1" d="M1200 62c1,0 2,1 2,3 0,1 -1,2 -2,2 -2,0 -3,-1 -3,-2 0,-2 1,-3 3,-3z"/>
   <path class="fil1" d="M1209 62c2,0 3,1 3,2 0,2 -1,3 -3,3 -1,0 -2,-1 -2,-3 0,-1 1,-2 2,-2z"/>
   <path class="fil1" d="M1219 61c2,0 3,1 3,3 0,1 -1,3 -3,3 -1,0 -2,-2 -2,-3 0,-2 1,-3 2,-3z"/>
   <path class="fil1" d="M1229 60c2,0 3,1 3,3 0,1 -1,3 -3,3 -1,0 -3,-2 -3,-3 0,-2 2,-3 3,-3z"/>
   <path class="fil1" d="M1239 58c2,0 3,2 3,3 0,2 -1,3 -3,3 -1,0 -3,-1 -3,-3 0,-1 2,-3 3,-3z"/>
   <path class="fil1" d="M1249 56c1,0 3,2 3,3 0,2 -2,3 -3,3 -2,0 -3,-1 -3,-3 0,-1 1,-3 3,-3z"/>
   <path class="fil1" d="M1258 54c2,0 3,1 3,3 0,1 -1,2 -3,2 -1,0 -2,-1 -2,-2 0,-2 1,-3 2,-3z"/>
   <path class="fil1" d="M1268 50c1,0 3,2 3,3 0,2 -2,3 -3,3 -2,0 -3,-1 -3,-3 0,-1 1,-3 3,-3z"/>
  </g>
  <circle class="fil1" cx="1277" cy="49" r="3"/>
  <circle class="fil2" cx="167" cy="316" r="12"/>
  <circle class="fil2" cx="363" cy="313" r="12"/>
  <circle class="fil2" cx="506" cy="289" r="12"/>
  <circle class="fil2" cx="646" cy="196" r="12"/>
  <circle class="fil2" cx="773" cy="195" r="12"/>
  <circle class="fil2" cx="955" cy="193" r="12"/>
  <circle class="fil2" cx="1096" cy="72" r="12"/>
  <rect class="fil0" x="133" y="341" width="66.9492" height="29.4821" rx="6" ry="6"/>
  <text x="142" y="363"  class="fil3 fnt0">1990</text>
  <rect class="fil0" x="329" y="338" width="66.9492" height="29.4821" rx="6" ry="6"/>
  <text x="338" y="360"  class="fil3 fnt0">2001</text>
  <rect class="fil0" x="472" y="315" width="66.9492" height="29.4821" rx="6" ry="6"/>
  <text x="481" y="336"  class="fil3 fnt0">200</text>
  <text x="517" y="336"  class="fil3 fnt0">2</text>
  <rect class="fil0" x="612" y="221" width="66.9492" height="29.4821" rx="6" ry="6"/>
  <text x="622" y="243"  class="fil3 fnt0">200</text>
  <text x="657" y="243"  class="fil3 fnt0">5</text>
  <rect class="fil0" x="739" y="221" width="66.9492" height="29.4821" rx="6" ry="6"/>
  <text x="748" y="242"  class="fil3 fnt0">200</text>
  <text x="784" y="242"  class="fil3 fnt0">7</text>
  <rect class="fil0" x="921" y="219" width="66.9492" height="29.4821" rx="6" ry="6"/>
  <text x="930" y="240"  class="fil3 fnt0">200</text>
  <text x="966" y="240"  class="fil3 fnt0">9</text>
  <rect class="fil0" x="1063" y="97" width="66.9492" height="29.4821" rx="6" ry="6"/>
  <text x="1072" y="119"  class="fil3 fnt0">20</text>
  <text x="1095" y="119"  class="fil3 fnt0">13</text>
  <g id="_2359691123008">
   <polygon class="fil4" points="122,282 141,299 155,286 "/>
   <polygon class="fil4" points="155,286 180,265 175,288 "/>
   <polygon class="fil5" points="141,299 155,286 175,288 "/>
   <polygon class="fil5" points="122,282 153,278 180,265 155,286 "/>
   <polygon class="fil6" points="154,285 149,267 142,284 "/>
   <polygon class="fil6" points="149,267 165,278 156,285 "/>
   <polygon class="fil7" points="154,285 155,286 156,285 149,267 "/>
   <polygon class="fil8" points="149,267 147,260 140,266 "/>
  </g>
  <path class="fil0 str0" d="M575 157c0,0 0,0 1,0"/>
  <path class="fil0" d="M121 263c64,-20 144,-27 213,-13"/>
  <path class="fil0" d="M334 250c38,6 87,11 123,-9"/>
  <path class="fil0" d="M457 241c56,-28 90,-76 146,-96"/>
  <path class="fil0" d="M603 145c61,-23 91,-26 149,-13"/>
  <path class="fil0" d="M752 132c65,14 114,25 151,10"/>
  <path class="fil0" d="M903 142c72,-36 57,-95 151,-121"/>
 </g>
</svg>
